#!OML:ASF H:\Punching\Project 1\Capture day 1\Session 1\female.ASF
:FULLY-SPECIFIED
:DEGREES
4231
root 10.4432 15.7558 21.7441 -173.042 149.448 -184.376
lowerback -6.29868 -0.596926 5.38474
upperback -5.49219 -0.9444 1.47082
thorax -2.22202 -0.589097 -1.53717
lowerneck -15.5708 0.263779 6.2309
upperneck 40.8112 -0.416809 -2.16859
head 17.703 0.692465 -2.14518
rclavicle -5.34731e-014 -1.0138e-014
rhumerus -36.6923 -2.57074 -74.0819
rradius 32.3864
rwrist 5.42344
rhand -12.3315 -5.23789
rfingers 7.12502
rthumb 13.7375 -34.7644
lclavicle -5.34731e-014 -1.0138e-014
lhumerus -45.0579 10.85 75.5398
lradius 30.2494
lwrist -21.8503
lhand -2.46464 10.4292
lfingers 7.12502
lthumb 23.2277 39.0484
rfemur -16.7921 -3.52247 31.3416
rtibia 19.9768
rfoot -12.5502 -15.0062
rtoes 4.13362
lfemur -30.715 3.51366 -15.9529
ltibia 64.9104
lfoot -8.21971 13.0219
ltoes -0.515744
4232
root 10.4779 15.7407 21.8296 -173.019 149.763 -184.418
lowerback -6.24065 -0.500496 5.45865
upperback -5.48103 -0.817097 1.41828
thorax -2.23675 -0.529215 -1.62694
lowerneck -15.5266 0.249453 6.26449
upperneck 40.8481 -0.449943 -2.16141
head 17.7107 0.686371 -2.1546
rclavicle -6.41081e-015 -8.74653e-015
rhumerus -36.2901 -2.3593 -74.2096
rradius 32.5833
rwrist 5.28691
rhand -12.359 -5.25261
rfingers 7.12502
rthumb 13.711 -34.7809
lclavicle -6.41081e-015 -8.74653e-015
lhumerus -45.4069 10.6144 75.322
lradius 30.6187
lwrist -21.1266
lhand -2.85339 10.5648
lfingers 7.12502
lthumb 22.8547 39.2306
rfemur -16.7161 -3.43534 31.4316
rtibia 20.5171
rfoot -13.0681 -14.931
rtoes 4.22334
lfemur -31.5288 3.20175 -15.9235
ltibia 63.8145
lfoot -9.20926 13.073
ltoes -0.648136
4233
root 10.5131 15.7254 21.915 -173.004 150.101 -184.466
lowerback -6.1749 -0.403438 5.53293
upperback -5.46891 -0.68837 1.37051
thorax -2.25407 -0.468611 -1.71204
lowerneck -15.4892 0.241058 6.29368
upperneck 40.8891 -0.474301 -2.15109
head 17.7234 0.68367 -2.16031
rclavicle 6.08902e-014 1.5704e-014
rhumerus -35.8899 -2.16246 -74.3306
rradius 32.7811
rwrist 5.15293
rhand -12.3848 -5.24849
rfingers 7.12502
rthumb 13.6862 -34.7785
lclavicle 6.08902e-014 1.5704e-014
lhumerus -45.7378 10.4399 75.0698
lradius 30.9415
lwrist -20.4914
lhand -3.21328 10.6613
lfingers 7.12502
lthumb 22.5093 39.3694
rfemur -16.6242 -3.29793 31.5209
rtibia 21.044
rfoot -13.56 -14.8872
rtoes 4.34818
lfemur -32.2662 2.84653 -15.8468
ltibia 62.5493
lfoot -10.1577 13.1354
ltoes -0.711965
4234
root 10.5498 15.708 22.0002 -172.978 150.45 -184.487
lowerback -6.10994 -0.308776 5.5899
upperback -5.4589 -0.562145 1.31602
thorax -2.27256 -0.40894 -1.79468
lowerneck -15.4503 0.233819 6.30921
upperneck 40.9311 -0.497259 -2.12844
head 17.7364 0.681107 -2.15758
rclavicle -4.5795e-014 -1.66979e-014
rhumerus -35.4993 -1.96938 -74.4487
rradius 32.9793
rwrist 5.00632
rhand -12.4124 -5.22531
rfingers 7.12502
rthumb 13.6596 -34.7571
lclavicle -4.5795e-014 -1.66979e-014
lhumerus -46.0354 10.3958 74.7355
lradius 31.1567
lwrist -20.0313
lhand -3.5475 10.6828
lfingers 7.12502
lthumb 22.1884 39.4293
rfemur -16.5147 -3.16369 31.5779
rtibia 21.5413
rfoot -14.0171 -14.8325
rtoes 4.49508
lfemur -32.9287 2.42525 -15.7553
ltibia 61.1289
lfoot -11.0501 13.2348
ltoes -0.644823
4235
root 10.5877 15.6939 22.0856 -172.943 150.818 -184.496
lowerback -6.0469 -0.216112 5.63913
upperback -5.45106 -0.438281 1.26033
thorax -2.29183 -0.350302 -1.87452
lowerneck -15.4125 0.232794 6.32687
upperneck 40.9685 -0.510013 -2.10988
head 17.7477 0.682136 -2.15517
rclavicle -5.643e-014 -2.20651e-014
rhumerus -35.1275 -1.76963 -74.5698
rradius 33.1991
rwrist 4.8386
rhand -12.4538 -5.18349
rfingers 7.12502
rthumb 13.6196 -34.7179
lclavicle -5.643e-014 -2.20651e-014
lhumerus -46.3088 10.4669 74.3272
lradius 31.2852
lwrist -19.7273
lhand -3.83853 10.6534
lfingers 7.12502
lthumb 21.909 39.4329
rfemur -16.3727 -3.01469 31.6166
rtibia 21.9782
rfoot -14.4262 -14.7727
rtoes 4.66154
lfemur -33.5035 1.95075 -15.6275
ltibia 59.5406
lfoot -11.8557 13.3876
ltoes -0.594208
4236
root 10.6267 15.6813 22.1712 -172.894 151.194 -184.493
lowerback -5.99536 -0.125889 5.68191
upperback -5.44744 -0.31802 1.20081
thorax -2.3089 -0.293347 -1.95506
lowerneck -15.3778 0.235183 6.352
upperneck 41 -0.517976 -2.098
head 17.7567 0.684981 -2.15624
rclavicle -2.87865e-014 -6.26172e-015
rhumerus -34.7756 -1.56552 -74.6963
rradius 33.4341
rwrist 4.64091
rhand -12.4968 -5.14363
rfingers 7.12502
rthumb 13.5782 -34.6809
lclavicle -2.87865e-014 -6.26172e-015
lhumerus -46.57 10.6015 73.8732
lradius 31.3622
lwrist -19.5347
lhand -4.08093 10.6013
lfingers 7.12502
lthumb 21.6762 39.4079
rfemur -16.2049 -2.85128 31.6369
rtibia 22.3437
rfoot -14.7803 -14.7124
rtoes 4.84236
lfemur -34.009 1.41076 -15.4569
ltibia 57.8034
lfoot -12.6015 13.5926
ltoes -0.578764
4237
root 10.6667 15.6707 22.2563 -172.832 151.575 -184.49
lowerback -5.95307 -0.0383116 5.7296
upperback -5.4496 -0.201756 1.14141
thorax -2.32684 -0.238641 -2.03852
lowerneck -15.3524 0.24249 6.39325
upperneck 41.0253 -0.516989 -2.10581
head 17.765 0.690827 -2.16771
rclavicle -3.61167e-014 -3.47873e-015
rhumerus -34.4518 -1.35006 -74.8277
rradius 33.6986
rwrist 4.40821
rhand -12.5319 -5.11883
rfingers 7.12502
rthumb 13.5444 -34.6583
lclavicle -3.61167e-014 -3.47873e-015
lhumerus -46.8213 10.7914 73.3826
lradius 31.3904
lwrist -19.4423
lhand -4.27348 10.5282
lfingers 7.12502
lthumb 21.4913 39.356
rfemur -15.993 -2.67557 31.6489
rtibia 22.5907
rfoot -15.0605 -14.6452
rtoes 5.0278
lfemur -34.4496 0.808646 -15.2298
ltibia 55.9226
lfoot -13.2801 13.8632
ltoes -0.580366
4238
root 10.7074 15.662 22.3412 -172.764 151.963 -184.5
lowerback -5.92168 0.0468344 5.78807
upperback -5.45359 -0.0896894 1.08661
thorax -2.34069 -0.186199 -2.12353
lowerneck -15.3297 0.252393 6.43668
upperneck 41.0322 -0.512457 -2.11661
head 17.7635 0.697115 -2.17998
rclavicle 4.06142e-014 -4.87022e-015
rhumerus -34.149 -1.12738 -74.9648
rradius 33.9916
rwrist 4.14759
rhand -12.5631 -5.10941
rfingers 7.12502
rthumb 13.5143 -34.6509
lclavicle 4.06142e-014 -4.87022e-015
lhumerus -47.0829 10.924 72.9318
lradius 31.4508
lwrist -19.3149
lhand -4.41689 10.4943
lfingers 7.12502
lthumb 21.3536 39.3378
rfemur -15.7445 -2.47618 31.6669
rtibia 22.7338
rfoot -15.2777 -14.5782
rtoes 5.21386
lfemur -34.8342 0.150021 -14.9277
ltibia 53.9157
lfoot -13.903 14.2119
ltoes -0.539537
4239
root 10.7489 15.6552 22.4266 -172.696 152.347 -184.533
lowerback -5.90937 0.127488 5.8643
upperback -5.45827 0.0146043 1.03962
thorax -2.34507 -0.137791 -2.21077
lowerneck -15.316 0.265305 6.48264
upperneck 41.0314 -0.503733 -2.13155
head 17.7602 0.704466 -2.19382
rclavicle 6.77483e-014 -4.87022e-015
rhumerus -33.8621 -0.886643 -75.1091
rradius 34.2918
rwrist 3.85325
rhand -12.5945 -5.11989
rfingers 7.12502
rthumb 13.484 -34.6634
lclavicle 6.77483e-014 -4.87022e-015
lhumerus -47.3674 10.9723 72.543
lradius 31.5753
lwrist -19.115
lhand -4.5015 10.5247
lfingers 7.12502
lthumb 21.2723 39.3773
rfemur -15.4476 -2.2682 31.7006
rtibia 22.7646
rfoot -15.4429 -14.5059
rtoes 5.38095
lfemur -35.1548 -0.573652 -14.5333
ltibia 51.8004
lfoot -14.518 14.6127
ltoes -0.237903
